<?xml version="1.0" encoding="utf-8"?>
<!-- Generator: Adobe Illustrator 16.0.0, SVG Export Plug-In . SVG Version: 6.00 Build 0)  -->
<!DOCTYPE svg PUBLIC "-//W3C//DTD SVG 1.1//EN" "http://www.w3.org/Graphics/SVG/1.1/DTD/svg11.dtd">
<svg version="1.1" id="Layer_1" xmlns="http://www.w3.org/2000/svg" xmlns:xlink="http://www.w3.org/1999/xlink" x="0px" y="0px"
	 width="134.158px" height="45.408px" viewBox="0 0 134.158 45.408" enable-background="new 0 0 134.158 45.408"
	 xml:space="preserve">
<text transform="matrix(1 0 0 1 50.3516 34.5386)"><tspan x="0" y="0" fill="#1685B7" font-family="'RabbidHighwaySignII'" font-size="36">e</tspan><tspan x="22.751" y="0" fill="#FFFFFF" font-family="'RabbidHighwaySignII'" font-size="36">spr</tspan></text>
<g>
	<path fill="#1685B7" d="M0,22.434c0,0,0.092-0.253,0.294-0.698c0.209-0.437,0.497-1.107,0.921-1.887
		c0.833-1.581,2.12-3.738,3.887-6.046c1.764-2.309,3.994-4.792,6.66-7.015c0.67-0.55,1.349-1.111,2.076-1.608
		c0.36-0.256,0.723-0.514,1.086-0.773c0.369-0.248,0.755-0.466,1.136-0.701c1.517-0.95,3.146-1.733,4.82-2.377
		c0.857-0.265,1.688-0.608,2.568-0.774c0.437-0.095,0.871-0.19,1.304-0.285c0.44-0.069,0.884-0.12,1.321-0.169
		c1.756-0.211,3.536-0.068,5.224,0.25c1.692,0.404,3.302,1.008,4.721,1.903c0.707,0.453,1.391,0.871,1.989,1.439
		c0.609,0.534,1.197,1.021,1.685,1.635c0.248,0.291,0.491,0.575,0.729,0.854c0.115,0.138,0.232,0.275,0.345,0.409
		c0.105,0.147,0.205,0.302,0.303,0.451c0.392,0.603,0.762,1.155,1.087,1.693c0.6,1.141,1.073,2.151,1.412,3.01
		c0.314,0.887,0.514,1.607,0.663,2.077c0.142,0.478,0.204,0.738,0.204,0.738s-0.182-0.138-0.525-0.397
		c-0.327-0.271-0.825-0.636-1.398-1.132c-0.612-0.445-1.349-0.962-2.157-1.527c-0.854-0.481-1.753-1.073-2.784-1.481
		c-0.491-0.264-1.032-0.428-1.578-0.601c-0.275-0.071-0.53-0.22-0.82-0.264c-0.281-0.059-0.566-0.119-0.857-0.18
		c-1.143-0.272-2.366-0.312-3.612-0.331c-0.637,0.073-1.269,0.063-1.92,0.157c-0.653,0.126-1.304,0.18-1.975,0.364
		c-0.333,0.073-0.668,0.147-1.004,0.223L24.79,9.688c-0.677,0.164-1.36,0.462-2.045,0.675c-1.365,0.53-2.742,1.081-4.099,1.739
		c-1.357,0.631-2.692,1.35-4.002,2.031c-1.3,0.718-2.574,1.413-3.782,2.117c-1.212,0.688-2.366,1.364-3.441,1.993
		c-2.153,1.252-3.993,2.319-5.312,3.051C0.789,22.022,0,22.434,0,22.434z"/>
	<path fill="#1685B7" d="M42.386,26.23c0,0-0.187,0.002-0.524-0.023c-0.33-0.021-0.845-0.096-1.44-0.09
		c-0.291-0.006-0.612-0.014-0.963-0.021c-0.361,0.02-0.74,0.01-1.143,0.016c-0.812,0.027-1.706,0.049-2.683,0.131
		c-0.484,0.025-0.99,0.059-1.512,0.115c-0.52,0.039-1.059,0.08-1.61,0.145c-1.102,0.09-2.265,0.23-3.466,0.35
		c-1.203,0.127-2.447,0.262-3.712,0.396c-1.27,0.127-2.562,0.254-3.852,0.383c-2.592,0.236-5.202,0.453-7.681,0.527
		c-1.238,0.055-2.443,0.068-3.593,0.072c-1.15-0.002-2.246-0.035-3.264-0.078c-2.035-0.102-3.765-0.299-4.992-0.488
		C1.34,27.578,0.848,27.455,0.516,27.4C0.179,27.326,0,27.287,0,27.287s0.146-0.158,0.427-0.412
		c0.283-0.244,0.693-0.639,1.231-1.057c1.074-0.859,2.641-1.961,4.578-3.024c1.936-1.064,4.24-2.098,6.764-2.893
		c2.522-0.822,5.265-1.379,8.041-1.641c1.388-0.126,2.786-0.163,4.164-0.129c1.381,0.054,2.742,0.169,4.061,0.415
		c1.318,0.222,2.587,0.54,3.785,0.942c1.193,0.396,2.312,0.875,3.322,1.418c1.01,0.527,1.911,1.135,2.681,1.724
		c0.381,0.316,0.735,0.596,1.052,0.884c0.322,0.307,0.614,0.598,0.863,0.867c0.52,0.508,0.815,1.031,1.063,1.336
		C42.267,26.042,42.386,26.23,42.386,26.23z"/>
	<path fill="#1685B7" d="M0,30.898c0,0,0.199,0.027,0.572,0.08c0.363,0.07,0.912,0.129,1.581,0.26
		c1.348,0.24,3.231,0.623,5.431,1.121c2.153,0.506,4.665,1.098,7.356,1.732c1.326,0.279,2.676,0.617,4.042,0.889
		c1.364,0.303,2.74,0.537,4.106,0.775c1.364,0.205,2.722,0.402,4.044,0.5c0.662,0.057,1.318,0.113,1.958,0.119
		c0.649,0.049,1.275,0.021,1.898,0.027c1.247-0.016,2.431-0.139,3.568-0.295c0.563-0.09,1.1-0.234,1.646-0.322
		c0.533-0.15,1.046-0.295,1.539-0.434c0.495-0.184,0.968-0.361,1.419-0.529c0.468-0.158,0.862-0.42,1.283-0.596
		c0.208-0.098,0.409-0.191,0.603-0.283c0.181-0.115,0.361-0.223,0.538-0.324c0.36-0.209,0.69-0.4,0.989-0.572
		c0.595-0.406,1.063-0.725,1.382-0.941c0.339-0.219,0.519-0.336,0.519-0.336s-0.06,0.242-0.199,0.688
		c-0.15,0.434-0.334,1.129-0.67,1.934c-0.178,0.395-0.39,0.818-0.624,1.289c-0.116,0.238-0.242,0.482-0.377,0.732
		c-0.149,0.23-0.304,0.471-0.463,0.719c-0.329,0.488-0.678,1.039-1.095,1.539c-0.421,0.494-0.88,1.008-1.372,1.529
		c-0.513,0.469-1.065,0.941-1.646,1.43c-0.596,0.418-1.229,0.848-1.891,1.256c-0.668,0.352-1.369,0.727-2.094,1.023
		c-0.361,0.148-0.732,0.287-1.108,0.414c-0.376,0.145-0.757,0.252-1.141,0.35c-0.769,0.217-1.559,0.4-2.354,0.498
		c-0.397,0.053-0.802,0.121-1.203,0.156c-0.402,0.021-0.807,0.043-1.211,0.064c-1.623,0.068-3.249-0.072-4.854-0.313
		c-1.598-0.283-3.177-0.66-4.686-1.184c-1.518-0.496-2.966-1.127-4.339-1.82c-2.75-1.371-5.163-3.047-7.131-4.682
		c-1.969-1.635-3.486-3.246-4.499-4.463c-0.51-0.598-0.88-1.131-1.14-1.475C0.125,31.105,0,30.898,0,30.898z"/>
</g>
</svg>
